<svg width="16" height="16" viewBox="0 0 16 16" xmlns="http://www.w3.org/2000/svg"><path d="M0 1.146v13.708C0 15.487.53 16 1.182 16h13.636C15.47 16 16 15.487 16 14.854V1.146C16 .513 15.47 0 14.818 0H1.182C.53 0 0 .513 0 1.146zm4.85 12.248H2.433V6.17H4.85v7.224zM3.642 5.182h-.016c-.81 0-1.335-.554-1.335-1.248 0-.71.54-1.248 1.368-1.248.826 0 1.335.54 1.35 1.248 0 .694-.524 1.248-1.366 1.248zm2.545 8.212s.032-6.547 0-7.225h2.417v1.047h-.016C8.906 6.723 9.478 6 10.782 6c1.59 0 2.782 1.032 2.782 3.25v4.144h-2.416V9.53c0-.973-.35-1.635-1.225-1.635-.667 0-1.065.447-1.24.878-.063.154-.08.37-.08.586v4.034H6.188z" fill="#2E3C43" fill-rule="evenodd"/></svg>