<svg width="16" height="13" viewBox="0 0 16 13" xmlns="http://www.w3.org/2000/svg"><path d="M0 11.348c.257.03.518.045.783.045 1.538 0 2.953-.516 4.077-1.383-1.437-.026-2.65-.96-3.067-2.244.2.038.406.058.618.058.3 0 .59-.04.866-.113C1.774 7.415.643 6.11.643 4.543v-.04c.443.24.95.387 1.487.404-.88-.58-1.46-1.57-1.46-2.69 0-.592.16-1.147.444-1.625C2.734 2.547 5.152 3.834 7.88 3.97c-.056-.237-.085-.483-.085-.737 0-1.783 1.47-3.23 3.282-3.23.945 0 1.798.392 2.396 1.02.748-.144 1.45-.413 2.085-.784-.245.755-.766 1.388-1.443 1.788.664-.078 1.296-.252 1.885-.51-.44.65-.997 1.218-1.638 1.674.006.14.01.278.01.418 0 4.27-3.302 9.194-9.34 9.194-1.854 0-3.58-.535-5.032-1.452z" fill="#2E3C43" fill-rule="evenodd"/></svg>