<svg width="8px" height="7px" viewBox="0 0 8 7" version="1.1" xmlns="http://www.w3.org/2000/svg" xmlns:xlink="http://www.w3.org/1999/xlink">
  <defs>
    <path d="M1.53649367,3 L3.68621647,0.850277204 C3.88622518,0.650268491 3.87985141,0.340059774 3.68458926,0.144797628 C3.49503769,-0.0447539454 3.17347315,-0.0511930423 2.97910969,0.143170423 L0.14742815,2.97485196 C0.0254801722,3.09679994 -0.0197450462,3.2597148 0.00778725977,3.41256458 C-0.0197450462,3.56541436 0.0254801722,3.72832923 0.14742815,3.8502772 L2.97910969,6.68195874 C3.17347315,6.8763222 3.49503769,6.86988311 3.68458926,6.68033153 C3.87985141,6.48506939 3.88622518,6.17486067 3.68621647,5.97485196 L1.71136451,4 L8,4 L8,3 L1.53649367,3 Z" id="path-1"></path>
  </defs>
  <g id="Page-1" stroke="none" stroke-width="1" fill="none" fill-rule="evenodd">
    <mask id="mask-2" fill="white">
        <use xlink:href="#path-1"></use>
    </mask>
    <use id="Combined-Shape" fill="#00B9BF" transform="translate(4.000000, 3.412565) scale(-1, 1) translate(-4.000000, -3.412565) " xlink:href="#path-1"></use>
  </g>
</svg>