<svg width="11px" height="9px" viewBox="0 0 11 9" version="1.1" xmlns="http://www.w3.org/2000/svg" xmlns:xlink="http://www.w3.org/1999/xlink">
  <g id="Page-1" stroke="none" stroke-width="1" fill="none" fill-rule="evenodd">
    <g id="Pricing-v7---Particular" transform="translate(-1112.000000, -559.000000)" fill="#1785FB">
      <g id="Header" transform="translate(0.000000, -12.000000)">
        <g id="Plans" transform="translate(250.000000, 406.000000)">
          <g id="Pricing">
            <g id="Enterprise" transform="translate(625.000000, 0.000000)">
              <g id="Secondary" transform="translate(44.000000, 145.000000)">
                <path d="M199,20.6670856 L202.109933,23.7770188 C202.305433,23.9725189 202.619001,23.9695039 202.814263,23.7742418 C203.003814,23.5846902 203.010768,23.2636404 202.81704,23.069912 L198.851688,19.10456 C198.656188,18.9090599 198.34262,18.9120749 198.147358,19.107337 C198.10902,19.1456755 198.078151,19.1893933 198.054902,19.2363491 L194.18296,23.1082909 C193.989232,23.3020193 193.996186,23.6230691 194.185737,23.8126207 C194.380999,24.0078828 194.694567,24.0108978 194.890067,23.8153977 L198,20.7054645 L198,29.4636543 C198,29.7447249 198.223858,29.9594046 198.5,29.9594046 C198.768066,29.9594046 199,29.7374496 199,29.4636543 L199,20.6670856 Z" id="arrow" transform="translate(198.500000, 24.459405) scale(-1, 1) rotate(-90.000000) translate(-198.500000, -24.459405) "></path>
              </g>
            </g>
          </g>
        </g>
      </g>
    </g>
  </g>
</svg>
