<svg width="82" height="32" viewBox="388 665 82 32" xmlns="http://www.w3.org/2000/svg"><g fill="#162945" fill-rule="evenodd"><path d="M454 697c8.837 0 16-7.163 16-16s-7.163-16-16-16-16 7.163-16 16 7.163 16 16 16z" fill-opacity=".1"/><path d="M393.755 686.483c2.242 0 3.538-1.007 4.498-2.375l-2.125-1.564c-.61.767-1.237 1.278-2.3 1.278-1.427 0-2.43-1.232-2.43-2.81v-.03c0-1.534 1.003-2.797 2.43-2.797.975 0 1.645.496 2.227 1.232l2.125-1.698c-.902-1.28-2.24-2.18-4.323-2.18-3.086 0-5.357 2.404-5.357 5.47v.03c0 3.143 2.344 5.443 5.255 5.443zm9.342-.21h2.955l.728-1.895h3.945l.728 1.895h3.028l-4.337-10.6h-2.722l-4.323 10.6zm4.513-4.165l1.15-2.976 1.135 2.976h-2.285zm12.37 4.165h2.824v-3.187h1.252l2.053 3.187h3.245l-2.43-3.668c1.265-.557 2.095-1.624 2.095-3.248v-.03c0-1.037-.306-1.834-.903-2.45-.684-.707-1.76-1.128-3.32-1.128h-4.817v10.523zm2.824-5.472v-2.54h1.863c.932 0 1.53.42 1.53 1.263v.03c0 .766-.57 1.248-1.515 1.248h-1.878zm14.64 5.473h2.825v-7.968h3.056v-2.556h-8.923v2.555h3.042v7.968zM454 686.5c3.038 0 5.5-2.462 5.5-5.5s-2.462-5.5-5.5-5.5-5.5 2.462-5.5 5.5 2.462 5.5 5.5 5.5z"/></g></svg>