<svg width="64px" height="26px" viewBox="0 0 64 26" version="1.1" xmlns="http://www.w3.org/2000/svg" xmlns:xlink="http://www.w3.org/1999/xlink">
  <g id="Page-1" stroke="none" stroke-width="1" fill="none" fill-rule="evenodd">
    <g id="Logo" fill="#2E3C43">
      <path d="M51.4782609,25.0434783 C58.3938264,25.0434783 64,19.4373047 64,12.5217391 C64,5.60617357 58.3938264,0 51.4782609,0 C44.5626953,0 38.9565217,5.60617357 38.9565217,12.5217391 C38.9565217,19.4373047 44.5626953,25.0434783 51.4782609,25.0434783 Z" id="Halo" opacity="0.1"></path>
      <path d="M4.10070996,16.6828535 C5.85004329,16.6828535 6.86102165,15.9184709 7.61073593,14.8802796 L5.95227706,13.6937753 C5.47518615,14.2756187 4.98673593,14.6635144 4.15750649,14.6635144 C3.04429437,14.6635144 2.26050216,13.7280014 2.26050216,12.5300883 L2.26050216,12.5072709 C2.26050216,11.343584 3.04429437,10.3852535 4.15750649,10.3852535 C4.91858009,10.3852535 5.44110823,10.7617405 5.89548052,11.3207666 L7.55393939,10.031584 C6.84966234,9.06184484 5.80460606,8.3773231 4.18022511,8.3773231 C1.77205195,8.3773231 0,10.2027144 0,12.5300883 L0,12.5529057 C0,14.9373231 1.82884848,16.6828535 4.10070996,16.6828535 L4.10070996,16.6828535 Z M11.3906147,16.5231318 L13.6965541,16.5231318 L14.2645194,15.0856361 L17.3428917,15.0856361 L17.9108571,16.5231318 L20.273593,16.5231318 L16.8885194,8.48000136 L14.764329,8.48000136 L11.3906147,16.5231318 Z M14.9119999,13.3629231 L15.8093852,11.1040014 L16.6954112,13.3629231 L14.9119999,13.3629231 Z M24.5646406,16.5231318 L26.7683462,16.5231318 L26.7683462,14.1044883 L27.7452466,14.1044883 L29.346909,16.5231318 L31.8800345,16.5231318 L29.9830302,13.7394101 C30.9712899,13.3172883 31.6187705,12.5072709 31.6187705,11.2751318 L31.6187705,11.2523144 C31.6187705,10.4651144 31.380225,9.86045353 30.9144934,9.39269701 C30.380606,8.85648832 29.5400172,8.53704484 28.3245713,8.53704484 L24.5646406,8.53704484 L24.5646406,16.5231318 Z M26.7683462,12.3703666 L26.7683462,10.442297 L28.2223376,10.442297 C28.9493332,10.442297 29.4150648,10.7617405 29.4150648,11.4006274 L29.4150648,11.4234448 C29.4150648,12.0052883 28.9720518,12.3703666 28.2336969,12.3703666 L26.7683462,12.3703666 Z M38.1930388,16.5231318 L38.1930388,10.4765231 L35.8189436,10.4765231 L35.8189436,8.53704484 L42.782199,8.53704484 L42.782199,10.4765231 L40.3967444,10.4765231 L40.3967444,16.5231318 L38.1930388,16.5231318 Z M51.2291907,16.6956522 C48.9240021,16.6956522 47.0552776,14.8269277 47.0552776,12.5217391 C47.0552776,10.2165506 48.9240021,8.34782609 51.2291907,8.34782609 C53.5343792,8.34782609 55.4031037,10.2165506 55.4031037,12.5217391 C55.4031037,14.8269277 53.5343792,16.6956522 51.2291907,16.6956522 Z"></path>
    </g>
  </g>
</svg>