<svg width="64" height="26" viewBox="0 0 64 26" xmlns="http://www.w3.org/2000/svg"><g fill="#2E3C43" fill-rule="evenodd"><path d="M51.478 25.043c6.916 0 12.522-5.606 12.522-12.52C64 5.605 58.394 0 51.478 0c-6.915 0-12.52 5.606-12.52 12.522 0 6.915 5.605 12.52 12.52 12.52z" opacity=".1"/><path d="M4.1 16.683c1.75 0 2.76-.765 3.51-1.803l-1.658-1.186c-.477.582-.965.97-1.794.97-1.114 0-1.897-.936-1.897-2.134v-.023c0-1.163.784-2.122 1.898-2.122.76 0 1.283.377 1.737.936l1.66-1.288c-.705-.97-1.75-1.655-3.375-1.655C1.772 8.377 0 10.203 0 12.53v.023c0 2.384 1.83 4.13 4.1 4.13zm7.29-.16h2.307l.568-1.437h3.078l.568 1.437h2.364L16.89 8.48h-2.126l-3.373 8.043zm3.522-3.16l.897-2.26.885 2.26h-1.783zm9.653 3.16h2.203v-2.42h.977l1.602 2.42h2.533l-1.897-2.784c.988-.423 1.636-1.233 1.636-2.465v-.023c0-.787-.24-1.392-.706-1.86-.533-.536-1.374-.855-2.59-.855h-3.76v7.986zm2.203-4.153v-1.928h1.454c.727 0 1.193.32 1.193.96v.02c0 .583-.443.948-1.18.948h-1.467zm11.425 4.153v-6.046H35.82v-1.94h6.962v1.94h-2.385v6.046h-2.204zm13.036.173c-2.306 0-4.175-1.87-4.175-4.174 0-2.305 1.87-4.174 4.174-4.174 2.304 0 4.173 1.87 4.173 4.174 0 2.305-1.87 4.174-4.174 4.174z"/></g></svg>