<svg width="16px" height="16px" viewBox="0 0 16 16" version="1.1" xmlns="http://www.w3.org/2000/svg" xmlns:xlink="http://www.w3.org/1999/xlink">
  <g id="Page-1" stroke="none" stroke-width="1" fill="none" fill-rule="evenodd">
    <path d="M6.11489139e-15,14.8538596 L0,14.8538596 L0,1.14614038 C0,0.513101458 0.52935165,0 1.18237072,0 L14.8176293,0 C15.4706268,0 16,0.513101458 16,1.14614038 L16,14.8538596 C16,15.4866847 15.4706268,16 14.8176293,16 L1.18237072,16 C0.52935165,16 6.11489139e-15,15.4866847 6.11489139e-15,14.8538596 Z M4.8500952,2.60634161 L4.8500952,2.60634161 L2.4334384,2.60634161 L2.4334384,9.83123772 L4.8500952,9.83123772 L4.8500952,2.60634161 Z M3.64175604,10.8176753 L3.64171301,10.8176753 L3.62600716,10.8176753 C2.81500446,10.8176753 2.29057972,11.3724662 2.29057972,12.0657946 C2.29057972,12.7747298 2.83107607,13.3141277 3.65774158,13.3141277 C4.48449316,13.3141277 4.99331964,12.7747298 5.00902548,12.0657946 C5.00902548,11.3724662 4.48449316,10.8176753 3.64175604,10.8176753 Z M6.18730838,2.60634161 L6.18737293,2.60634161 C6.18737293,2.60634161 6.21908583,9.15330242 6.18737293,9.83123772 L8.60400822,9.83123772 L8.60400822,8.78344179 L8.58787207,8.78344179 C8.90586172,9.27666056 9.47820007,10.000775 10.7819146,10.000775 C12.3718844,10.000775 13.5641304,8.96815831 13.5641304,6.74899451 L13.5641304,2.60634161 L11.1476888,2.60634161 L11.1476888,6.47149214 C11.1476888,7.44275044 10.7978786,8.10529269 9.92340709,8.10529269 C9.25580094,8.10529269 8.85816328,7.65846684 8.6834626,7.22703403 C8.61964952,7.07267601 8.60394367,6.85695961 8.60394367,6.64102941 L8.60394367,2.60634161 L6.18730838,2.60634161 Z" id="Linkedin" fill="#2E3C43" transform="translate(8.000000, 8.000000) scale(1, -1) translate(-8.000000, -8.000000) "></path>
  </g>
</svg>