<svg width="18" height="18" xmlns="http://www.w3.org/2000/svg">
  <path d="M17.244 16.006l-4.72-4.718A6.937 6.937 0 0 0 14 7c0-1.87-.729-3.628-2.051-4.949A6.948 6.948 0 0 0 7 0C5.13 0 3.372.728 2.051 2.051A6.951 6.951 0 0 0 0 7c0 1.87.729 3.628 2.051 4.949A6.948 6.948 0 0 0 7 14a6.932 6.932 0 0 0 4.288-1.475l4.718 4.718 1.238-1.237zM7 12.25a5.214 5.214 0 0 1-3.712-1.537A5.213 5.213 0 0 1 1.75 7c0-1.402.546-2.72 1.538-3.712A5.211 5.211 0 0 1 7 1.75c1.403 0 2.72.546 3.712 1.538A5.213 5.213 0 0 1 12.25 7a5.213 5.213 0 0 1-1.538 3.713A5.214 5.214 0 0 1 7 12.25z" fill="currentcolor" fill-rule="nonzero"/>
</svg>