<svg width="16px" height="13px" viewBox="0 0 16 13" version="1.1" xmlns="http://www.w3.org/2000/svg" xmlns:xlink="http://www.w3.org/1999/xlink">
  <g id="Page-1" stroke="none" stroke-width="1" fill="none" fill-rule="evenodd">
    <path d="M0,11.3482487 C0.256805296,11.3780914 0.518116976,11.3933585 0.783057171,11.3933585 C2.32096273,11.3933585 3.7363766,10.8767565 4.85981199,10.0101072 C3.42338783,9.98400922 2.21111233,9.04978171 1.79342331,7.76596783 C1.99381104,7.80370334 2.19946596,7.82392496 2.41097333,7.82392496 C2.71038443,7.82392496 3.00037309,7.78446111 3.27584769,7.71060321 C1.77411025,7.41378894 0.64265701,6.10773704 0.64265701,4.54208788 C0.64265701,4.52849157 0.64265701,4.51495288 0.642891108,4.50147179 C1.08551154,4.74349756 1.591631,4.88885128 2.12976334,4.90561622 C1.24897034,4.32616011 0.669402685,3.33708648 0.669402685,2.21602499 C0.669402685,1.62383674 0.83128132,1.06875028 1.11383738,0.591496908 C2.73285782,2.54648435 5.15161491,3.83294836 7.87979078,3.96770157 C7.8238414,3.73120651 7.79475475,3.48457183 7.79475475,3.23131183 C7.79475475,1.44679671 9.26453784,0 11.0774498,0 C12.0215663,0 12.8746772,0.392449297 13.4734994,1.02047187 C14.2212078,0.875521429 14.9237353,0.606591112 15.5579648,0.236322228 C15.3128644,0.990859581 14.7924065,1.6241248 14.1146348,2.02406359 C14.7786532,1.94594244 15.4113025,1.77224388 16,1.51523913 C15.5598961,2.16325289 15.0033286,2.73239655 14.3620176,3.18798801 C14.3683383,3.32654358 14.3714986,3.46590572 14.3714986,3.6060168 C14.3714986,7.87612095 11.0697831,12.8 5.0319324,12.8 C3.17817038,12.8 1.45269395,12.2650776 0,11.3482487 Z" id="Twitter" fill="#2E3C43"></path>
  </g>
</svg>